<svg width="328.06" height="69.987" viewBox="0 0 328.06 69.987" xmlns="http://www.w3.org/2000/svg"><g id="svgGroup" stroke-linecap="round" fill-rule="evenodd" font-size="9pt" stroke="#000" stroke-width="0.25mm" fill="#000" style="stroke:#000;stroke-width:0.25mm;fill:#000"><path d="M 38.737 68.229 L 37.695 67.709 Q 40.039 61.524 44.01 54.558 Q 47.982 47.591 53.451 39.453 L 53.776 38.998 Q 56.25 35.417 59.342 31.38 Q 62.435 27.344 65.723 23.275 Q 69.01 19.206 72.298 15.397 Q 75.586 11.589 78.451 8.529 Q 81.315 5.469 83.594 3.386 Q 85.872 1.302 87.109 0.651 Q 88.411 0 89.779 0 Q 91.602 0 92.741 1.27 Q 93.88 2.539 93.88 4.427 Q 93.88 5.339 93.652 6.12 Q 93.424 6.901 93.164 7.52 Q 92.904 8.138 92.643 8.529 L 92.383 8.92 Q 86.979 16.146 73.112 26.823 Q 70.378 28.907 67.676 30.86 Q 64.974 32.813 62.565 34.473 Q 60.156 36.133 58.105 37.5 Q 56.055 38.867 54.622 39.844 Q 51.042 45.052 47.526 50.782 Q 44.01 56.511 41.211 62.37 Q 44.141 58.268 47.559 54.069 Q 50.977 49.87 54.395 46.192 Q 57.813 42.513 61.133 39.681 Q 64.453 36.849 67.188 35.482 L 68.001 35.124 Q 68.815 34.766 70.052 34.375 Q 71.289 33.985 72.852 33.659 Q 74.414 33.334 75.977 33.334 Q 77.734 33.334 79.297 33.822 Q 80.859 34.31 81.999 35.222 Q 83.138 36.133 83.822 37.435 Q 84.505 38.737 84.505 40.365 Q 84.505 42.513 83.561 44.629 Q 82.617 46.745 81.413 48.503 Q 80.208 50.261 79.102 51.465 Q 77.995 52.67 77.734 52.93 Q 77.018 53.646 76.302 54.427 Q 75.651 55.143 74.87 56.055 Q 74.089 56.966 73.307 58.008 Q 71.029 60.873 70.313 62.468 Q 69.596 64.063 69.596 64.844 Q 69.596 64.909 69.564 65.17 Q 69.531 65.43 69.759 65.69 Q 69.987 65.951 70.573 66.179 Q 71.159 66.407 72.396 66.407 Q 74.414 66.407 76.66 65.69 Q 78.906 64.974 81.673 63.379 Q 84.44 61.784 87.956 59.147 Q 90.373 57.335 93.282 54.953 A 250.756 250.756 0 0 0 95.972 52.718 A 21.484 21.484 0 0 1 96.419 51.66 Q 97.266 49.805 98.307 48.21 Q 99.349 46.615 100.456 45.443 Q 99.414 44.922 98.926 44.662 Q 98.438 44.401 98.307 44.239 Q 98.177 44.076 98.21 44.011 Q 98.242 43.946 98.242 43.815 Q 98.242 43.229 98.828 43.229 Q 99.089 43.229 99.023 43.197 Q 98.958 43.164 99.023 43.262 Q 99.089 43.36 99.512 43.62 Q 99.935 43.88 101.302 44.532 Q 106.771 38.672 112.728 35.222 Q 118.685 31.771 124.219 31.771 Q 126.107 31.771 127.865 32.292 Q 129.622 32.813 130.99 33.757 Q 132.357 34.701 133.171 36.035 Q 133.984 37.37 133.984 38.998 Q 133.984 41.732 132.324 43.815 Q 130.664 45.899 128.223 47.266 Q 125.781 48.633 122.982 49.317 Q 120.182 50 117.839 50 Q 114.974 50 112.37 49.512 Q 109.766 49.024 107.65 48.405 Q 105.534 47.787 103.971 47.103 Q 102.409 46.42 101.563 46.029 Q 100.586 46.94 99.544 48.47 Q 98.503 50 97.689 51.791 Q 96.875 53.581 96.322 55.567 Q 95.768 57.552 95.768 59.44 Q 95.768 63.151 98.34 65.365 Q 100.911 67.578 106.315 67.578 Q 108.398 67.578 110.547 67.285 Q 112.695 66.992 114.648 66.569 Q 116.602 66.146 118.164 65.658 Q 119.727 65.17 120.703 64.779 Q 123.307 63.737 125.814 62.533 Q 128.32 61.328 130.892 59.831 Q 133.464 58.334 136.198 56.348 A 82.45 82.45 0 0 0 139.03 54.191 A 110.548 110.548 0 0 0 141.706 51.992 A 210.498 210.498 0 0 0 142.151 51.317 Q 144.043 48.43 145.313 46.257 Q 147.005 43.36 147.949 41.407 Q 148.893 39.453 149.219 38.347 Q 149.544 37.24 149.544 36.654 Q 149.544 36.263 149.447 36.101 Q 149.349 35.938 149.349 35.742 Q 149.349 35.157 149.935 35.157 Q 150.651 35.157 150.651 36.589 Q 150.651 38.021 148.828 41.96 Q 147.306 45.25 144.012 50.56 A 200.669 200.669 0 0 1 143.034 52.121 A 0.97 0.97 0 0 1 143.034 52.149 A 0.621 0.621 0 0 1 143.001 52.352 A 93.673 93.673 0 0 1 149.344 46.208 Q 154.19 41.964 158.887 39.258 Q 166.797 34.701 173.698 34.701 Q 177.669 34.701 180.013 35.97 Q 182.357 37.24 182.357 39.909 Q 182.357 41.211 181.836 42.546 Q 181.315 43.88 180.664 44.987 Q 180.013 46.094 179.492 46.778 Q 178.971 47.461 178.906 47.526 L 178.483 48.08 Q 178.06 48.633 177.344 49.545 Q 176.628 50.456 175.749 51.628 Q 174.87 52.8 174.023 54.167 Q 170.052 60.352 170.052 63.672 Q 170.052 65.039 170.898 65.983 Q 171.745 66.927 173.633 66.927 Q 175.846 66.927 179.199 65.365 Q 182.552 63.802 187.044 60.677 Q 189.128 59.245 190.983 57.813 Q 192.839 56.38 194.271 55.209 Q 195.703 54.037 196.517 53.288 L 197.331 52.539 A 2.304 2.304 0 0 1 197.37 52.52 A 79.309 79.309 0 0 1 197.884 51.465 Q 199.805 47.591 202.018 43.718 Q 204.232 39.844 206.543 36.166 Q 208.854 32.487 210.872 29.427 Q 213.021 26.107 215.007 23.308 Q 216.992 20.508 218.522 18.457 Q 220.052 16.407 220.964 15.202 L 221.875 13.998 Q 221.875 13.933 223.145 12.5 Q 224.414 11.068 226.302 9.278 Q 228.19 7.487 230.371 5.729 Q 232.552 3.972 234.44 3.19 Q 236.263 2.409 237.695 2.409 Q 239.844 2.409 241.048 3.809 Q 242.253 5.209 242.253 7.227 Q 242.253 8.594 241.732 10.222 Q 241.211 11.849 240.397 13.477 Q 239.583 15.104 238.574 16.667 Q 237.565 18.229 236.589 19.597 Q 233.659 23.633 230.436 27.116 Q 227.214 30.599 222.917 34.278 Q 218.62 37.956 212.858 42.155 Q 207.096 46.354 199.089 51.823 Q 198.177 53.711 197.363 55.567 Q 196.549 57.422 195.833 59.245 Q 195.703 59.636 195.573 60.157 Q 195.443 60.612 195.378 61.166 Q 195.313 61.719 195.313 62.305 Q 195.313 64.909 197.038 66.179 Q 198.763 67.448 201.302 67.448 Q 203.32 67.448 205.599 66.732 Q 209.701 65.495 213.118 64.128 Q 216.536 62.761 219.629 61.101 Q 222.721 59.44 225.684 57.455 Q 228.646 55.469 231.836 52.995 A 2.304 2.304 0 0 1 231.958 52.938 A 1.362 1.362 0 0 1 231.995 52.923 A 66.651 66.651 0 0 1 233.919 50 Q 235.417 47.852 236.654 46.094 Q 238.411 43.555 240.137 41.276 Q 241.862 38.998 243.262 37.24 Q 244.661 35.482 245.54 34.44 L 246.419 33.399 Q 246.484 33.203 246.875 33.203 Q 247.461 33.203 247.461 33.789 Q 247.461 33.92 247.331 34.18 L 246.452 35.222 Q 245.573 36.263 244.173 37.989 Q 242.773 39.714 241.048 41.992 Q 239.323 44.271 237.565 46.745 Q 236.393 48.373 234.961 50.456 Q 233.529 52.539 232.227 54.753 Q 230.924 56.966 230.046 59.147 Q 229.167 61.328 229.167 63.151 Q 229.167 64.323 229.622 65.007 Q 230.078 65.69 230.794 66.016 Q 231.51 66.341 232.389 66.439 Q 233.268 66.537 234.115 66.537 Q 236.914 66.537 240.234 65.397 Q 243.555 64.258 246.908 62.403 Q 250.26 60.547 253.548 58.203 A 76.043 76.043 0 0 0 258.449 54.409 A 222.122 222.122 0 0 0 259.18 53.321 Q 261.979 49.154 263.672 46.257 Q 265.365 43.36 266.309 41.407 Q 267.253 39.453 267.578 38.347 Q 267.904 37.24 267.904 36.654 Q 267.904 36.263 267.806 36.101 Q 267.708 35.938 267.708 35.742 Q 267.708 35.157 268.294 35.157 Q 269.01 35.157 269.01 36.589 Q 269.01 38.021 267.188 41.96 Q 265.365 45.899 261.003 52.735 Q 269.336 43.815 277.246 39.258 Q 285.156 34.701 292.057 34.701 Q 296.029 34.701 298.372 35.97 Q 300.716 37.24 300.716 39.909 Q 300.716 41.211 300.195 42.546 Q 299.674 43.88 299.023 44.987 Q 298.372 46.094 297.852 46.778 Q 297.331 47.461 297.266 47.526 L 296.842 48.08 Q 296.419 48.633 295.703 49.545 Q 294.987 50.456 294.108 51.628 Q 293.229 52.8 292.383 54.167 Q 288.411 60.352 288.411 63.672 Q 288.411 65.039 289.258 65.983 Q 290.104 66.927 291.992 66.927 Q 294.206 66.927 297.559 65.365 Q 300.911 63.802 305.404 60.677 Q 307.487 59.245 309.342 57.813 Q 311.198 56.38 312.63 55.209 Q 314.063 54.037 314.876 53.288 L 315.69 52.539 Q 315.951 52.409 316.081 52.409 Q 316.667 52.409 316.667 52.995 Q 316.667 53.255 316.471 53.451 Q 315.039 54.753 313.346 56.12 Q 311.914 57.292 310.059 58.757 Q 308.203 60.222 306.12 61.654 Q 297.005 68.034 291.992 68.034 Q 289.714 68.034 288.477 66.797 Q 287.24 65.56 287.24 63.672 Q 287.24 59.896 291.406 53.516 Q 292.318 52.214 293.197 50.977 Q 294.076 49.74 294.792 48.828 Q 295.638 47.722 296.419 46.81 Q 297.266 45.703 297.982 44.532 Q 298.568 43.555 299.056 42.318 Q 299.544 41.081 299.544 39.974 Q 299.544 35.938 291.992 35.938 Q 288.021 35.938 284.115 37.338 Q 280.208 38.737 276.563 40.951 Q 272.917 43.164 269.596 45.996 Q 266.276 48.828 263.477 51.693 Q 260.677 54.558 258.464 57.227 Q 256.25 59.896 254.753 61.784 L 252.897 64.258 L 251.335 66.341 Q 250.651 67.253 250.26 67.839 L 249.87 68.425 L 248.893 67.709 Q 248.763 67.839 249.642 66.667 Q 250.521 65.495 251.986 63.509 Q 253.451 61.524 255.339 58.887 A 196.506 196.506 0 0 0 256.147 57.748 A 132.33 132.33 0 0 1 254.264 59.18 Q 251.042 61.589 247.656 63.477 Q 244.271 65.365 240.853 66.537 Q 237.435 67.709 234.115 67.709 Q 233.008 67.709 231.901 67.578 Q 230.794 67.448 229.915 66.96 Q 229.036 66.472 228.516 65.56 Q 227.995 64.649 227.995 63.151 Q 227.995 61.198 228.874 58.952 A 31.065 31.065 0 0 1 230.448 55.565 A 35.693 35.693 0 0 1 230.483 55.501 A 150.14 150.14 0 0 1 228.249 57.108 A 126.843 126.843 0 0 1 226.335 58.431 Q 223.307 60.482 220.15 62.175 Q 216.992 63.867 213.509 65.3 Q 210.026 66.732 205.859 67.904 Q 204.557 68.295 203.32 68.425 Q 202.083 68.555 201.042 68.555 Q 199.154 68.555 197.852 68.034 Q 196.549 67.513 195.736 66.634 Q 194.922 65.755 194.531 64.616 Q 194.141 63.477 194.141 62.305 Q 194.141 60.938 194.401 59.929 Q 194.661 58.92 194.727 58.789 A 61.932 61.932 0 0 1 196.173 55.144 A 78.647 78.647 0 0 1 194.987 56.12 Q 193.555 57.292 191.699 58.757 Q 189.844 60.222 187.76 61.654 Q 178.646 68.034 173.633 68.034 Q 171.354 68.034 170.117 66.797 Q 168.88 65.56 168.88 63.672 Q 168.88 59.896 173.047 53.516 Q 173.958 52.214 174.837 50.977 Q 175.716 49.74 176.432 48.828 Q 177.279 47.722 178.06 46.81 Q 178.906 45.703 179.622 44.532 Q 180.208 43.555 180.697 42.318 Q 181.185 41.081 181.185 39.974 Q 181.185 35.938 173.633 35.938 Q 169.661 35.938 165.755 37.338 Q 161.849 38.737 158.203 40.951 Q 154.557 43.164 151.237 45.996 Q 147.917 48.828 145.117 51.693 Q 142.318 54.558 140.104 57.227 Q 137.891 59.896 136.393 61.784 L 134.538 64.258 L 132.975 66.341 Q 132.292 67.253 131.901 67.839 L 131.51 68.425 L 130.534 67.709 Q 130.404 67.839 131.283 66.667 Q 132.161 65.495 133.626 63.509 Q 135.091 61.524 136.979 58.887 A 196.506 196.506 0 0 0 139.403 55.421 A 71.905 71.905 0 0 1 136.849 57.324 Q 134.049 59.31 131.445 60.84 Q 128.841 62.37 126.302 63.542 Q 123.763 64.714 121.094 65.821 Q 119.661 66.341 117.904 66.862 Q 116.146 67.383 114.225 67.774 Q 112.305 68.164 110.286 68.425 Q 108.268 68.685 106.315 68.685 Q 104.232 68.685 102.279 68.327 Q 100.326 67.969 98.763 67.123 Q 96.484 65.886 95.54 63.867 Q 94.596 61.849 94.596 59.44 Q 94.596 57.552 95.085 55.534 A 21.484 21.484 0 0 1 95.254 54.876 A 219.054 219.054 0 0 1 92.367 57.215 A 183.067 183.067 0 0 1 89.811 59.213 Q 86.458 61.784 83.398 63.64 Q 80.339 65.495 77.539 66.537 Q 74.74 67.578 72.201 67.578 Q 70.443 67.578 69.434 66.96 Q 68.424 66.341 68.424 64.844 Q 68.424 62.24 72.396 57.292 Q 73.828 55.469 75.716 53.516 Q 77.604 51.563 79.297 49.479 Q 80.99 47.396 82.161 45.15 Q 83.333 42.904 83.333 40.495 Q 83.333 38.998 82.682 37.858 Q 82.031 36.719 81.022 35.97 Q 80.013 35.222 78.678 34.864 Q 77.344 34.505 75.977 34.505 Q 74.414 34.505 72.949 34.798 Q 71.484 35.091 70.313 35.482 Q 69.141 35.873 68.424 36.198 L 67.708 36.524 Q 63.672 38.542 58.757 43.164 Q 53.841 47.787 48.307 54.818 Q 46.224 57.487 44.466 59.896 Q 42.708 62.305 41.439 64.16 Q 40.169 66.016 39.453 67.123 L 38.737 68.229 Z M 7.943 68.88 Q 5.859 68.099 4.362 66.699 Q 2.865 65.3 1.888 63.509 Q 0.911 61.719 0.456 59.701 Q 0 57.683 0 55.599 Q 0 50.782 2.214 45.541 Q 4.427 40.3 8.073 35.189 Q 11.719 30.078 16.471 25.358 Q 21.224 20.638 26.237 16.927 Q 25.781 16.276 25.26 15.43 Q 24.74 14.584 24.316 13.607 Q 23.893 12.63 23.633 11.621 Q 23.372 10.612 23.372 9.636 Q 23.372 9.115 23.958 9.115 Q 24.284 9.115 24.349 9.31 L 24.479 9.701 Q 24.805 11.459 25.488 13.151 Q 26.172 14.844 27.214 16.211 Q 30.273 13.998 33.398 12.175 Q 36.523 10.352 39.518 9.115 Q 42.513 7.878 45.28 7.194 Q 48.047 6.511 50.326 6.511 Q 54.232 6.511 55.924 8.268 Q 57.617 10.026 57.617 12.63 Q 57.617 14.193 57.096 15.625 Q 56.576 17.058 55.794 18.099 Q 55.599 18.36 54.72 19.401 Q 53.841 20.443 52.148 21.615 Q 50.456 22.787 47.949 23.731 Q 45.443 24.675 42.057 24.675 Q 39.193 24.675 36.784 24.056 Q 34.375 23.438 32.487 22.461 Q 30.599 21.485 29.199 20.28 Q 27.799 19.076 26.953 17.839 Q 22.005 21.68 17.35 26.302 Q 12.695 30.925 9.115 35.873 Q 5.534 40.821 3.353 45.866 Q 1.172 50.912 1.172 55.599 Q 1.237 58.399 2.083 60.808 Q 2.93 63.216 4.557 65.007 Q 6.185 66.797 8.561 67.806 Q 10.938 68.815 14.128 68.815 Q 17.057 68.685 19.368 68.099 Q 21.68 67.513 24.154 66.016 Q 25.521 65.235 27.083 64.063 Q 28.646 62.891 30.339 61.263 Q 32.031 59.636 33.822 57.487 Q 35.612 55.339 37.435 52.539 Q 37.63 52.279 37.956 52.279 Q 38.542 52.279 38.542 52.865 Q 38.542 53.06 38.411 53.19 Q 34.701 58.92 31.152 62.175 Q 27.604 65.43 24.74 67.058 Q 22.07 68.555 19.466 69.271 Q 16.862 69.987 14.128 69.987 Q 12.76 69.987 11.165 69.759 Q 9.57 69.532 7.943 68.88 Z M 222.786 14.714 Q 222.656 14.844 221.549 16.244 Q 220.443 17.643 218.717 20.052 Q 216.992 22.461 214.714 25.749 Q 212.435 29.037 209.993 32.878 Q 207.552 36.719 205.013 40.983 Q 202.474 45.248 200.195 49.675 Q 205.273 46.159 209.342 43.262 Q 213.411 40.365 216.699 37.793 Q 219.987 35.222 222.656 32.943 Q 225.326 30.664 227.572 28.386 Q 229.818 26.107 231.803 23.796 Q 233.789 21.485 235.677 18.88 Q 238.346 15.17 239.714 12.175 Q 241.081 9.18 241.081 7.162 Q 241.081 5.534 240.137 4.558 Q 239.193 3.581 237.63 3.581 Q 236.133 3.581 234.473 4.395 Q 232.813 5.209 231.185 6.446 Q 229.557 7.683 228.06 9.115 Q 226.563 10.547 225.391 11.784 Q 224.219 13.021 223.503 13.867 L 222.786 14.714 Z M 89.779 1.107 Q 89.258 1.107 88.802 1.237 Q 88.346 1.367 87.63 1.693 Q 86.523 2.214 83.464 5.143 Q 80.404 8.073 76.107 12.793 Q 71.81 17.513 66.699 23.763 Q 61.589 30.013 56.51 37.24 Q 58.724 35.742 61.654 33.724 Q 64.583 31.706 67.839 29.297 Q 71.094 26.888 74.512 24.219 Q 77.93 21.55 81.087 18.815 Q 84.245 16.081 86.914 13.379 Q 89.583 10.677 91.406 8.203 Q 91.471 8.138 92.09 7.032 Q 92.708 5.925 92.708 4.427 Q 92.708 4.037 92.611 3.451 Q 92.513 2.865 92.188 2.344 Q 91.862 1.823 91.309 1.465 Q 90.755 1.107 89.779 1.107 Z M 102.344 45.117 L 104.102 45.899 Q 105.143 46.354 106.608 46.875 Q 108.073 47.396 109.831 47.819 Q 111.589 48.242 113.607 48.535 Q 115.625 48.828 117.708 48.828 Q 120.378 48.828 123.047 48.047 Q 125.716 47.266 127.865 45.964 Q 130.013 44.662 131.38 42.871 Q 132.747 41.081 132.747 39.128 Q 132.747 37.761 132.064 36.621 Q 131.38 35.482 130.208 34.636 Q 129.036 33.789 127.507 33.334 Q 125.977 32.878 124.349 32.878 Q 122.266 32.878 119.824 33.464 Q 117.383 34.05 114.616 35.449 Q 111.849 36.849 108.757 39.193 Q 105.664 41.537 102.344 45.117 Z M 30.924 20.117 Q 32.813 21.55 35.677 22.526 Q 38.542 23.503 42.057 23.503 Q 45.313 23.503 47.721 22.591 Q 50.13 21.68 51.693 20.541 Q 53.255 19.401 54.036 18.457 Q 54.818 17.513 54.883 17.448 Q 55.534 16.537 55.99 15.235 Q 56.445 13.933 56.445 12.63 Q 56.445 11.719 56.185 10.808 Q 55.924 9.896 55.241 9.213 Q 54.557 8.529 53.353 8.106 Q 52.148 7.683 50.326 7.683 Q 48.177 7.683 45.54 8.334 Q 42.904 8.985 40.007 10.222 Q 37.109 11.459 34.017 13.216 Q 30.924 14.974 27.865 17.188 Q 28.516 17.969 29.264 18.685 Q 30.013 19.401 30.924 20.117 Z M 328.06 64.974 Q 328.06 66.472 326.953 67.546 Q 325.846 68.62 324.349 68.62 Q 322.852 68.62 321.777 67.546 Q 320.703 66.472 320.703 64.974 Q 320.703 63.412 321.777 62.338 Q 322.852 61.263 324.349 61.263 Q 325.846 61.263 326.953 62.338 Q 328.06 63.412 328.06 64.974 Z M 255.859 25.065 Q 255.859 26.367 254.948 27.311 Q 254.036 28.255 252.734 28.255 Q 251.432 28.255 250.488 27.311 Q 249.544 26.367 249.544 25.065 Q 249.544 23.763 250.488 22.852 Q 251.432 21.94 252.734 21.94 Q 254.036 21.94 254.948 22.852 Q 255.859 23.763 255.859 25.065 Z" vector-effect="non-scaling-stroke"/></g></svg>